<svg width="500" height="500" viewBox="0 0 500 500" fill="none" xmlns="http://www.w3.org/2000/svg">
<path d="M235.938 250L300 314.063L270.833 343.75L177.083 250L270.833 156.25L300 185.938L235.938 250ZM250 458.333C278.819 458.333 305.903 452.861 331.25 441.917C356.597 430.972 378.646 416.132 397.396 397.396C416.146 378.66 430.986 356.611 441.917 331.25C452.847 305.889 458.319 278.806 458.333 250C458.347 221.194 452.875 194.111 441.917 168.75C430.958 143.389 416.118 121.34 397.396 102.604C378.674 83.8681 356.625 69.0278 331.25 58.0834C305.875 47.1389 278.792 41.6667 250 41.6667C221.208 41.6667 194.125 47.1389 168.75 58.0833C143.375 69.0278 121.326 83.8681 102.604 102.604C83.882 121.34 69.0348 143.389 58.0625 168.75C47.0903 194.111 41.625 221.194 41.6667 250C41.7083 278.806 47.1806 305.889 58.0833 331.25C68.9861 356.611 83.8264 378.66 102.604 397.396C121.382 416.132 143.431 430.979 168.75 441.938C194.069 452.896 221.153 458.361 250 458.333Z" fill="#CDD6F4"/>
</svg>
